<?xml version="1.0" encoding="UTF-8" standalone="no"?>
<svg
   xmlns:dc="http://purl.org/dc/elements/1.1/"
   xmlns:cc="http://creativecommons.org/ns#"
   xmlns:rdf="http://www.w3.org/1999/02/22-rdf-syntax-ns#"
   xmlns:svg="http://www.w3.org/2000/svg"
   xmlns="http://www.w3.org/2000/svg"
   viewBox="0 0 601.33331 129.33333"
   height="129.33333"
   width="601.33331"
   xml:space="preserve"
   id="svg2"
   version="1.1"><metadata
     id="metadata8"><rdf:RDF><cc:Work
         rdf:about=""><dc:format>image/svg+xml</dc:format><dc:type
           rdf:resource="http://purl.org/dc/dcmitype/StillImage" /></cc:Work></rdf:RDF></metadata><defs
     id="defs6"><clipPath
       id="clipPath14"
       clipPathUnits="userSpaceOnUse"><path
         id="path12"
         d="M 0,0 H 489 V 489 H 0 Z" /></clipPath></defs><g
     clip-path="url(#clipPath14)"
     transform="matrix(1.3333333,0,0,-1.3333333,-21.333333,394.66667)"
     id="g10"><g
       transform="matrix(1.3333333,0,0,1.3333333,-21.333333,-257.33331)"
       id="g16"><g
         id="g18"><path
           id="path20"
           style="fill:#00557f;fill-opacity:1;fill-rule:nonzero;stroke:none"
           d="m 157.949,218.477 c 0,5.546 -4.5,9.523 -10.801,9.523 -6.222,0 -10.796,-3.977 -10.796,-9.523 v -16.801 h 4.5 v 16.801 c 0,3.375 2.546,5.625 6.296,5.625 3.829,0 6.301,-2.176 6.301,-5.625 v -16.801 h 4.5 z m 7.949,-7.204 v -2.25 h -4.125 v 18.454 h 4.125 v -13.051 c 1.727,-1.426 3.75,-2.25 5.403,-2.25 1.875,0 3.375,1.125 3.375,3.523 v 11.699 h 4.125 v -12 c 0,-4.722 -2.926,-6.898 -6.301,-6.898 -2.176,0 -4.648,0.898 -6.602,2.773 z m 16.954,16.204 h 4.125 v -18.454 h -4.125 z m 4.574,-23.551 c 0,-1.352 -1.125,-2.403 -2.477,-2.403 -1.347,0 -2.472,1.125 -2.472,2.403 0,1.347 1.125,2.398 2.472,2.398 1.352,0 2.477,-1.051 2.477,-2.398 m 20.926,5.097 h -4.426 l -5.176,13.954 -5.176,-13.954 h -4.426 l 7.352,18.454 h 4.426 z m 4.949,7.352 c 0.523,-2.551 2.25,-4.199 4.801,-4.199 2.699,0 4.046,1.648 4.421,4.199 h -9.222 m 13.426,2.023 c 0,-5.699 -3,-9.898 -8.778,-9.898 -5.472,0 -9.074,4.352 -9.074,9.75 0,5.398 3.676,9.75 9.148,9.75 2.403,0 5.028,-0.898 7.125,-2.477 l -0.972,-2.699 c -2.028,1.051 -3.977,1.574 -5.852,1.574 -2.773,0 -4.648,-1.875 -5.023,-4.796 0,-0.079 0,-0.227 -0.074,-0.301 h 13.5 c 0,-0.301 0,-0.602 0,-0.903 m 15,-9.898 c -0.153,0 -0.301,0 -0.528,0 -2.324,0 -5.023,1.051 -7.199,3.074 v -2.551 h -4.125 v 18.454 H 234 v -12.454 c 1.949,-1.648 4.273,-2.546 6.375,-2.546 0.227,0 0.375,0 0.602,0 l 0.75,-3.977 m 1.421,5.699 c 0,3.227 2.102,4.278 6.829,5.551 2.472,0.676 4.125,0.898 4.125,2.477 0,1.5 -1.727,2.398 -3.977,2.398 -2.176,0 -4.5,-0.824 -5.699,-2.324 L 242.699,225 c 1.5,1.875 4.574,2.926 7.574,2.926 3.676,0 7.954,-1.574 7.954,-5.852 0,-4.199 -4.051,-5.097 -7.051,-5.847 -3.074,-0.829 -3.903,-1.204 -3.824,-2.329 0,-1.421 1.421,-2.171 3.375,-2.171 1.949,0 4.046,0.597 5.171,1.796 l 1.727,-2.699 c -1.801,-1.722 -4.648,-2.398 -7.051,-2.398 -3.75,0.074 -7.426,1.574 -7.426,5.773 z m 18.079,13.278 h 4.125 v -18.454 h -4.125 z m 4.574,-23.551 c 0,-1.352 -1.125,-2.403 -2.477,-2.403 -1.347,0 -2.472,1.125 -2.472,2.403 0,1.347 1.125,2.398 2.472,2.398 1.352,0 2.477,-1.051 2.477,-2.398 m 14.847,20.023 c -0.824,0.301 -1.722,0.528 -2.625,0.528 -1.421,0 -2.546,-0.602 -2.546,-2.403 v -9.676 h 5.25 v -3.296 h -5.25 V 204 h -4.125 v 5.102 h -0.153 l -3.449,0.671 v 2.625 h 3.602 v 9.977 c 0,4.125 2.699,5.699 5.625,5.699 1.574,0 3.222,-0.449 4.648,-1.273 z m 21.977,-14.926 h -4.352 l -5.324,13.352 -5.625,-13.352 h -4.5 l 8.102,18.375 -2.926,7.426 h 3.824 z m 14.551,9.227 c 0,-3.523 1.949,-6 5.25,-6 3.222,0 5.176,2.477 5.176,6 0,3.602 -1.954,6 -5.176,6 -3.227,0 -5.25,-2.477 -5.25,-6 m 14.699,0 c 0,-5.398 -3.75,-9.75 -9.449,-9.75 -5.699,-0.074 -9.449,4.273 -9.449,9.75 0,5.398 3.75,9.75 9.449,9.75 5.699,0 9.449,-4.352 9.449,-9.75 m 9.148,-10.273 c 0,-2.25 1.051,-3.528 2.852,-3.528 1.199,0 2.477,0.301 3.898,0.824 l 0.977,-2.847 c -1.875,-0.977 -3.824,-1.5 -5.551,-1.5 -3.597,0 -6.375,2.25 -6.375,7.273 v 0.824 h -0.074 l -3.449,0.676 v 2.625 h 3.597 v 15.153 h 4.125 v -15.153 h 5.25 v -3.301 h -5.25 v -1.046 M 127.5,239.926 c -3.602,-3.227 -8.852,-5.324 -15.227,-5.324 -8.324,0 -16.046,3.597 -16.125,12.972 0,7.426 4.727,9.528 14.704,12.301 5.847,1.574 8.398,2.25 8.324,5.398 0,3 -2.625,5.028 -7.278,5.028 -4.273,0 -9.222,-1.801 -11.847,-5.028 l -5.028,5.625 c 3.528,4.5 10.426,7.125 16.801,7.125 7.426,0 16.426,-3.671 16.426,-13.046 -0.074,-9 -8.324,-11.028 -14.625,-12.676 -7.352,-1.949 -8.477,-2.778 -8.398,-5.102 0.222,-3.523 2.921,-4.801 6.898,-4.801 4.352,0 7.949,1.5 10.426,3.454 l 4.949,-5.926 m 12.227,22.347 c -0.079,-5.023 2.773,-8.625 7.421,-8.625 4.579,0 7.426,3.528 7.426,8.625 0,5.102 -2.847,8.625 -7.426,8.625 -4.5,0 -7.421,-3.597 -7.421,-8.625 m 23.398,0 c 0,-8.699 -6.227,-15.75 -15.898,-15.75 -9.602,-0.074 -15.903,6.977 -15.903,15.75 0,8.704 6.301,15.75 15.903,15.75 9.597,0 15.898,-7.046 15.898,-15.75 m 31.949,-14.921 h -8.324 v 20.472 c -2.324,1.949 -5.102,3.074 -7.5,3.074 -2.699,0 -4.5,-1.722 -4.5,-5.097 v -18.375 h -8.324 v 19.426 c 0,7.722 4.574,11.171 10.051,11.171 3.449,0 7.199,-1.5 10.273,-4.421 v 3.597 h 8.324 z m 24.375,23.023 c -1.347,0.449 -2.773,0.75 -4.051,0.75 -2.25,0 -3.824,-0.977 -3.824,-3.824 v -13.5 h 8.028 v -6.449 h -8.028 v -8.102 h -8.324 v 8.102 h -0.148 l -5.551,1.199 v 5.25 h 5.699 v 14.551 c 0,6.972 4.574,9.597 9.676,9.597 2.773,0 5.699,-0.75 8.25,-2.023 z M 232.5,251.023 V 235.5 h -8.324 v 41.773 h 8.324 v -20.472 c 2.324,-1.949 5.176,-3.074 7.5,-3.074 2.852,0 5.023,1.574 5.023,5.097 v 18.375 h 8.329 v -19.426 c 0,-7.722 -4.727,-11.171 -10.204,-11.171 -3.597,-0.079 -7.574,1.5 -10.648,4.421 z m 46.352,16.426 c -2.329,2.324 -5.403,3.528 -7.727,3.528 -3.977,0 -6.227,-3.454 -6.227,-8.704 0,-5.25 2.403,-8.699 6.227,-8.699 2.324,0 5.398,1.199 7.727,3.528 v 10.347 m 8.324,-20.097 h -8.324 v 3.222 c -3,-2.773 -6.375,-4.051 -9.602,-4.051 -7.574,0 -12.898,6.977 -12.898,15.75 0,8.778 5.324,15.75 12.898,15.75 3.227,0 6.602,-1.199 9.602,-4.046 v 3.222 h 8.324 z m 31.801,4.125 c -1.727,-3.375 -4.875,-4.875 -8.477,-4.875 -3.449,0 -7.199,1.5 -10.199,4.421 v -3.597 h -8.324 v 29.847 h 8.324 v -20.546 c 2.176,-1.875 4.801,-3 6.972,-3 2.625,0 4.653,1.574 4.653,5.097 v 18.375 h 8.324 v -19.426 c 0,-0.449 0,-0.972 -0.074,-1.347 2.25,-1.727 4.801,-2.699 6.898,-2.699 2.699,0 4.727,1.574 4.727,5.171 v 18.375 h 8.324 v -19.421 c 0,-7.727 -4.5,-11.176 -9.824,-11.176 -3.75,-0.153 -8.028,1.574 -11.324,4.801 z m 48.824,10.796 c 0,5.625 -2.625,8.704 -6.301,8.778 -2.477,0 -5.398,-1.352 -7.801,-3.824 v -10.051 c 2.403,-2.403 5.403,-3.602 7.801,-3.602 3.977,0 6.301,3.602 6.301,8.699 m -14.102,-11.699 v -3.222 h -8.324 v 41.773 h 8.324 v -15 c 2.852,2.625 6.301,3.898 9.449,3.898 7.352,0 13.125,-6.296 13.125,-15.75 0,-8.773 -5.25,-15.75 -13.046,-15.75 -3.301,0 -6.676,1.426 -9.528,4.051 z m 45.824,19.801 c -1.347,0.449 -2.773,0.75 -4.046,0.75 -2.25,0 -3.829,-0.977 -3.829,-3.824 v -13.5 h 8.028 v -6.449 h -8.028 v -8.102 h -8.398 v 8.102 h -0.148 l -5.551,1.199 v 5.25 h 5.699 v 14.551 c 0,6.972 4.574,9.597 9.676,9.597 2.773,0 5.699,-0.75 8.25,-2.023 z m 11.028,-8.102 c -0.074,-5.023 2.773,-8.625 7.426,-8.625 4.574,0 7.421,3.528 7.421,8.625 0,5.102 -2.847,8.625 -7.421,8.625 -4.579,0 -7.426,-3.597 -7.426,-8.625 m 23.324,0 c 0,-8.699 -6.227,-15.75 -15.898,-15.75 -9.602,-0.074 -15.903,6.977 -15.903,15.75 0,8.704 6.301,15.75 15.903,15.75 9.671,0 15.898,-7.046 15.898,-15.75 m 11.551,-11.25 v -3.597 h -8.324 v 29.847 h 8.324 v -20.398 c 2.472,-1.949 5.398,-3.074 7.648,-3.074 2.699,0 4.801,1.574 4.801,5.097 v 18.375 h 8.324 v -19.421 c 0,-7.727 -4.722,-11.176 -10.199,-11.176 -3.375,-0.153 -7.352,1.347 -10.574,4.347 z" /><path
           id="path22"
           style="fill:#00557f;fill-opacity:1;fill-rule:nonzero;stroke:none"
           d="m 86.926,213.449 c -0.074,0 -0.977,0.75 -1.949,0.977 -0.079,0.75 -0.454,1.5 -1.125,2.023 -0.528,0.375 -1.051,0.528 -1.653,0.528 -0.222,0 -0.449,0 -0.676,-0.079 -0.523,0.903 -1.5,1.5 -1.5,1.579 l -0.148,0.148 -0.148,-0.148 c -0.079,0 -0.977,-0.676 -1.579,-1.579 -0.222,0.079 -0.449,0.079 -0.597,0.079 -0.528,0 -1.125,-0.153 -1.653,-0.528 -0.671,-0.523 -1.046,-1.199 -1.125,-2.023 -0.972,-0.227 -1.949,-0.977 -1.949,-0.977 l -0.148,-0.148 0.074,-0.227 c 0,-0.074 0.375,-1.125 0.977,-1.949 -0.375,-0.676 -0.528,-1.5 -0.301,-2.25 0.222,-0.676 0.75,-1.273 1.347,-1.574 0.079,0 0.153,-0.074 0.227,-0.074 -0.074,-1.051 0.301,-2.102 0.301,-2.176 l 0.074,-0.227 h 0.227 c 0.074,0 1.199,0 2.171,0.375 0.528,-0.597 1.278,-0.972 2.102,-0.972 0.824,0 1.574,0.375 2.102,0.972 0.972,-0.375 2.097,-0.375 2.171,-0.375 h 0.227 l 0.074,0.227 c 0,0.074 0.375,1.125 0.301,2.176 0.074,0 0.148,0.074 0.148,0.074 0.676,0.301 1.125,0.898 1.352,1.574 0.227,0.824 0.148,1.648 -0.301,2.25 0.676,0.824 0.977,1.875 1.051,1.949 l 0.074,0.227 z m -4.199,40.125 c -2.25,7.051 -5.551,13.125 -9.829,18.074 -5.097,6 -11.699,10.426 -19.5,13.125 -7.796,-2.699 -14.324,-7.125 -19.5,-13.125 -4.273,-4.949 -7.574,-11.097 -9.898,-18.074 -3.148,-9.597 -3.523,-18.449 -3.602,-21.676 0.602,-0.222 1.426,-0.523 2.403,-0.898 0.676,2.023 2.176,3.898 4.648,5.625 3.301,2.324 6.824,3.301 6.977,3.375 0,0 7.199,2.102 11.472,3.375 2.704,0.898 2.625,2.852 2.176,4.273 0,0.079 -0.074,0.153 -0.074,0.227 -0.074,0.148 -0.148,0.375 -0.227,0.523 -0.074,0.153 -0.148,0.375 -0.222,0.528 -0.153,-0.153 -0.375,-1.727 -3.375,-3.227 -3,-1.5 -7.5,-0.824 -8.028,-0.523 -0.222,0.148 -0.296,0.222 -0.074,0.449 0.153,0.074 0.301,0.148 0.375,0.301 0.676,0.75 0.602,2.398 2.699,4.574 0.676,0.602 1.352,1.051 2.102,1.426 3,1.426 4.352,0.75 4.875,0.676 0,0.074 -0.074,0.222 -0.074,0.296 -4.574,8.028 -6.375,14.926 -6.602,20.704 l 0.903,0.75 c 1.796,1.5 3.671,2.847 5.699,4.125 l 1.648,0.972 c 1.801,0.977 3.676,1.801 5.625,2.551 5.403,-2.023 10.125,-4.875 14.176,-8.625 0,0 0.523,-0.523 0.824,-0.824 -0.597,-0.074 -1.199,-0.074 -1.801,-0.153 -7.722,-0.296 -9.972,-3.375 -8.625,-8.023 0.079,-0.148 0.301,-0.602 0,-0.898 -0.222,-0.227 -0.671,-0.079 -0.824,0 -7.949,3.75 -10.199,15 -10.199,15 0,0 -0.301,-8.926 5.926,-14.926 6.222,-6 11.472,-4.801 11.699,-4.801 2.551,0.602 3.074,-0.898 3.227,-2.102 0,-0.148 0.074,-0.296 0.222,-0.449 1.199,-0.824 2.477,-4.051 1.125,-5.25 -0.676,-0.597 -3.222,-1.273 -3.898,-1.5 -0.602,-0.222 -1.125,-0.375 -1.653,-0.676 -0.296,-0.148 -0.597,-0.375 -0.75,-0.75 -0.449,-1.347 -1.722,-2.023 -2.023,-2.25 2.625,-0.597 5.477,-2.097 8.477,-4.421 0.898,-0.75 1.648,-1.5 2.25,-2.329 0.597,-0.671 0.597,-1.347 1.648,-1.796 2.176,-1.051 2.102,-2.176 1.727,-2.551 -0.375,-0.375 -1.727,0.148 -1.875,0.301 0.074,-0.602 0,-1.278 -0.079,-1.875 0,0 0,-0.079 0,-0.079 0,-0.074 0,-0.074 0,-0.148 0,-0.074 0,-0.148 -0.074,-0.301 0,0 0,-0.074 0,-0.074 -0.449,-2.176 -1.648,-4.051 -2.926,-5.398 7.875,1.5 13.727,3.75 16.125,4.722 0.153,3.375 -0.148,12.153 -3.296,21.75 M 28.051,234.523 c -1.574,-0.972 -2.778,-2.472 -3.375,-4.199 0.972,-0.301 2.097,-0.676 3.301,-1.051 -0.301,1.426 -0.454,3.454 0.074,5.25 m -8.324,-21.074 -0.153,-0.148 0.074,-0.227 c 0,-0.074 0.375,-1.125 0.977,-1.949 -0.375,-0.676 -0.523,-1.5 -0.301,-2.25 0.227,-0.676 0.75,-1.273 1.352,-1.574 0.074,0 0.148,-0.074 0.222,-0.074 -0.074,-1.051 0.301,-2.102 0.301,-2.176 l 0.074,-0.227 H 22.5 c 0.074,0 1.199,0 2.176,0.375 0.523,-0.597 1.273,-0.972 2.097,-0.972 0.829,0 1.579,0.375 2.102,0.972 0.977,-0.375 2.102,-0.375 2.176,-0.375 h 0.222 l 0.079,0.227 c 0,0.074 0.375,1.125 0.296,2.176 0.079,0 0.153,0.074 0.153,0.074 0.676,0.301 1.125,0.898 1.347,1.574 0.227,0.824 0.153,1.648 -0.296,2.25 0.671,0.824 0.972,1.875 1.046,1.949 l 0.079,0.227 -0.153,0.148 c -0.074,0 -0.972,0.75 -1.949,0.977 -0.074,0.75 -0.449,1.5 -1.125,2.023 -0.523,0.375 -1.051,0.528 -1.648,0.528 -0.227,0 -0.454,0 -0.676,-0.079 -0.528,0.903 -1.5,1.5 -1.5,1.579 l -0.153,0.148 -0.148,-0.148 c -0.074,0 -0.977,-0.676 -1.574,-1.579 -0.227,0.079 -0.449,0.079 -0.602,0.079 -0.523,0 -1.125,-0.153 -1.648,-0.528 -0.676,-0.523 -1.051,-1.199 -1.125,-2.023 -0.977,-0.227 -1.875,-0.903 -1.949,-0.977 m 36,23.102 c 0.074,-0.153 1.574,-3.375 2.546,-5.699 0.829,-2.102 -0.824,-4.204 -1.949,-5.329 3.824,0.153 7.426,0.528 10.801,1.051 0.449,0.449 0.977,0.824 1.051,1.199 -3.074,-0.296 -4.727,0.375 -4.574,1.5 0.074,0.454 0.75,0.602 1.347,0.454 0.528,-0.079 2.852,-0.301 4.574,0.972 0.75,0.602 1.278,1.574 1.352,2.926 0,0 0,0.074 0,0.074 0,0.153 0,0.227 0,0.375 0.074,2.102 -0.898,3.977 -2.852,5.477 -6.296,4.949 -9.972,4.273 -10.5,4.125 -1.722,-1.051 -2.546,-2.477 -2.546,-4.352 0.148,-1.426 0.75,-2.699 0.75,-2.773 m -3.079,-6.301 c 0.528,0.227 1.954,1.125 2.329,2.102 0.148,0.375 -0.153,0.824 -0.301,1.199 -0.528,1.051 -0.903,1.949 -0.977,2.023 -0.148,0.227 -0.824,1.727 -0.898,3.676 -0.074,1.273 0.148,2.926 1.347,4.426 -0.148,0 -0.222,0 -0.222,0 -1.125,-0.074 -2.25,0.074 -2.778,0.148 -0.523,0 -0.75,-0.222 -0.972,-0.523 -0.676,-0.977 -1.801,-1.875 -3.528,-2.324 -2.097,-0.602 -4.875,-1.352 -7.125,-1.954 -4.421,-1.199 -3.222,-3.824 -4.273,-3.75 -1.051,0.079 -0.523,1.875 -0.074,2.551 -1.801,-0.375 -2.699,-1.051 -2.699,-1.051 -3.227,-2.625 -3.079,-5.773 -2.403,-8.023 6.074,-1.648 14.324,-3.227 23.477,-3.227 0.074,0 0.222,0 0.301,0 1.046,0.829 3.148,2.852 2.398,4.5 -0.074,0.153 -0.074,0.227 -0.148,0.375 -1.352,-0.898 -2.704,-1.421 -2.926,-1.574 -0.602,-0.222 -1.125,-0.301 -1.278,0.153 -0.222,0.523 0.227,0.972 0.75,1.273 M 36.227,203.023 c 0,-0.074 0.074,-0.222 0.148,-0.296 0.074,-0.079 0.227,-0.079 0.301,-0.079 l 0.824,0.153 v -1.727 c 0,-0.148 0.074,-0.222 0.148,-0.301 0.079,-0.074 0.227,-0.074 0.375,-0.074 l 0.75,0.227 v -1.278 c 0,-0.296 0.153,-0.597 0.454,-0.75 0.148,-0.074 0.296,-0.074 0.375,-0.074 0.148,0 0.296,0.074 0.449,0.153 0.148,0.074 0.222,0.148 0.375,0.222 0.597,0.375 1.273,0.824 3.222,1.278 0.528,0.148 1.278,0.222 2.028,0.375 1.273,0.222 2.773,0.523 4.125,0.898 1.648,0.523 2.773,1.125 3.375,1.949 0.148,0.153 0.148,0.301 0.148,0.528 0,-0.153 0.074,-0.375 0.153,-0.528 0.671,-0.824 1.722,-1.426 3.375,-1.949 1.347,-0.375 2.847,-0.676 4.125,-0.898 0.75,-0.153 1.5,-0.301 2.023,-0.375 1.949,-0.454 2.625,-0.903 3.227,-1.278 0.148,-0.074 0.222,-0.148 0.375,-0.222 0.148,-0.079 0.296,-0.153 0.449,-0.153 0.148,0 0.301,0 0.375,0.074 0.222,0.153 0.449,0.454 0.449,0.75 v 1.278 l 0.75,-0.227 c 0.148,-0.074 0.227,0 0.375,0.074 0.074,0.079 0.148,0.153 0.148,0.301 v 1.727 l 0.829,-0.153 c 0.074,0 0.222,0 0.296,0.079 0.079,0.074 0.153,0.148 0.153,0.296 v 13.875 c 0,1.352 -0.977,1.875 -3.449,1.727 -8.403,-0.227 -11.551,1.949 -11.551,1.949 0,0.75 -0.824,1.278 -2.028,1.278 -1.273,0 -2.023,-0.454 -2.023,-1.278 0,0 -3.148,-2.176 -11.551,-1.949 -2.472,0.148 -3.449,-0.449 -3.449,-1.727 v -13.875 z m 52.875,-1.949 c -0.602,-0.301 -15.903,-7.273 -35.778,-7.273 -19.875,0 -35.176,6.972 -35.773,7.273 l -1.199,0.602 v 32.097 c 0.148,4.352 0.824,12.301 3.75,21.079 5.625,17.171 16.949,29.023 32.773,34.273 0.227,0.074 0.449,0.074 0.676,0.074 0.222,0 0.449,0 0.676,-0.074 15.824,-5.25 27.148,-17.102 32.625,-34.273 2.773,-8.704 3.449,-16.653 3.597,-21 V 201.75 Z" /><path
           id="path24"
           style="fill:#00557f;fill-opacity:1;fill-rule:nonzero;stroke:none"
           d="m 25.051,207.898 c 0,0 -0.227,-0.296 -0.227,-0.898 0,-1.125 0.903,-1.949 1.949,-1.949 1.125,0 1.954,0.898 1.954,1.949 0,0.602 -0.227,0.898 -0.227,0.898 l -0.824,1.125 c -0.153,-0.074 -0.375,-0.148 -0.602,-0.148 v -0.824 c 0,-0.153 -0.148,-0.301 -0.301,-0.301 -0.148,0 -0.296,0.148 -0.296,0.301 v 0.824 c -0.227,0 -0.375,0.074 -0.602,0.148 z m 3.676,2.176 0.824,-0.222 c 0.148,-0.079 0.375,0.074 0.375,0.222 0.074,0.153 0,0.375 -0.227,0.375 l -0.824,0.227 c 0,0.074 0,0.222 0,0.301 0,0.074 0,0.222 0,0.296 l 1.352,0.454 c 0,0 0.375,0.148 0.972,-0.079 1.051,-0.375 1.574,-1.421 1.278,-2.472 -0.153,-0.528 -0.528,-0.903 -0.977,-1.125 -0.449,-0.227 -0.977,-0.301 -1.5,-0.153 -0.602,0.153 -0.824,0.454 -0.824,0.528 l -0.824,1.199 c 0.148,0.074 0.222,0.227 0.375,0.449 m 0.824,-2.847 c 0.074,0 0.148,-0.079 0.222,-0.079 0.454,-0.148 0.829,-0.148 1.278,-0.074 0,-0.597 -0.153,-1.199 -0.227,-1.574 -0.301,0 -0.972,0.074 -1.574,0.301 0.227,0.375 0.301,0.824 0.301,1.273 0,0 0,0.074 0,0.153 m -5.699,-0.079 c 0.074,0 0.148,0.079 0.222,0.079 0,-0.079 0,-0.153 0,-0.227 0,-0.449 0.074,-0.898 0.301,-1.273 -0.602,-0.227 -1.199,-0.227 -1.574,-0.227 -0.074,0.301 -0.227,0.977 -0.227,1.574 0.449,-0.074 0.824,-0.074 1.278,0.074 m -1.5,4.5 c 0.523,0.153 0.898,0.079 0.972,0.079 l 1.352,-0.454 c 0,-0.074 0,-0.222 0,-0.296 0,-0.079 0,-0.227 0,-0.301 l -0.824,-0.227 c -0.153,-0.074 -0.227,-0.222 -0.227,-0.375 0.074,-0.148 0.227,-0.222 0.375,-0.222 l 0.824,0.222 c 0.074,-0.222 0.227,-0.375 0.375,-0.523 l -0.824,-1.199 c 0,0 -0.227,-0.301 -0.824,-0.528 -0.227,-0.074 -0.375,-0.074 -0.602,-0.074 -0.301,0 -0.597,0.074 -0.898,0.227 -0.449,0.222 -0.824,0.671 -0.977,1.125 -0.301,1.046 0.301,2.171 1.278,2.546 m 3.671,3.75 c 0.375,-0.449 0.375,-0.824 0.375,-0.898 v -1.426 C 26.176,213 26.023,213 25.801,212.852 l -0.528,0.671 c -0.074,0.079 -0.148,0.153 -0.222,0.153 -0.074,0 -0.153,0 -0.227,-0.074 -0.148,-0.079 -0.148,-0.301 -0.074,-0.454 l 0.523,-0.671 c -0.148,-0.153 -0.296,-0.301 -0.375,-0.528 l -1.347,0.449 c 0,0 -0.375,0.153 -0.75,0.602 -0.676,0.898 -0.449,2.102 0.449,2.773 0.898,0.676 2.176,0.528 2.773,-0.375 M 52.5,219.75 v -15.449 c 0,-0.449 -2.102,-1.875 -6.824,-2.477 -4.727,-0.676 -6.074,-2.097 -6.074,-2.097 v 16.648 c 0.824,0.676 0.972,0.602 6.375,1.199 5.699,0.676 6.523,2.176 6.523,2.176 m 8.176,-2.176 c 5.472,-0.597 5.625,-0.523 6.375,-1.199 v -16.648 c 0,0 -1.352,1.421 -6.074,2.097 -4.727,0.676 -6.829,2.102 -6.829,2.477 v 15.449 c 0,0 0.829,-1.5 6.528,-2.176 m -38.477,-4.949 c 0.074,-0.074 0.074,-0.148 0.153,-0.148 -0.079,0 -0.153,0 -0.227,-0.079 -0.449,-0.148 -0.824,-0.375 -1.125,-0.671 -0.375,0.449 -0.602,1.046 -0.75,1.421 0.301,0.153 0.824,0.528 1.426,0.676 0.148,-0.449 0.301,-0.824 0.523,-1.199 m 4.727,3.227 c -0.074,-0.079 -0.074,-0.153 -0.153,-0.153 0,0.074 -0.074,0.153 -0.148,0.153 -0.301,0.375 -0.602,0.671 -0.977,0.824 0.375,0.523 0.829,0.898 1.125,1.125 0.301,-0.227 0.75,-0.602 1.125,-1.125 -0.375,-0.153 -0.75,-0.449 -0.972,-0.824 m 4.5,-3.454 c -0.074,0 -0.153,0.079 -0.227,0.079 0.074,0.074 0.074,0.074 0.153,0.148 0.296,0.375 0.449,0.75 0.523,1.199 0.602,-0.148 1.125,-0.523 1.426,-0.676 -0.153,-0.296 -0.375,-0.898 -0.75,-1.421 -0.301,0.296 -0.676,0.523 -1.125,0.671 m -1.352,0.079 c -0.074,0 -0.074,0 0,0 l -1.347,-0.454 c -0.079,0.153 -0.227,0.375 -0.375,0.528 l 0.523,0.676 c 0.074,0.148 0.074,0.375 -0.074,0.449 -0.074,0.074 -0.153,0.074 -0.227,0.074 -0.074,0 -0.222,-0.074 -0.222,-0.148 l -0.528,-0.676 c -0.148,0.074 -0.375,0.148 -0.597,0.222 v 1.5 c 0,0 0,0.375 0.375,0.903 0.671,0.898 1.875,1.051 2.773,0.449 0.898,-0.676 1.051,-1.875 0.449,-2.773 -0.449,-0.676 -0.75,-0.75 -0.75,-0.75 m -3.301,0.148 c 0.903,0 1.653,-0.75 1.653,-1.648 0,-0.903 -0.75,-1.653 -1.653,-1.653 -0.898,0 -1.648,0.75 -1.648,1.653 0,0.898 0.75,1.648 1.648,1.648 m 56.329,-0.148 -1.352,-0.454 c -0.074,0.153 -0.227,0.375 -0.375,0.528 l 0.523,0.676 c 0.079,0.148 0.079,0.375 -0.074,0.449 -0.074,0.074 -0.148,0.074 -0.222,0.074 -0.079,0 -0.227,-0.074 -0.227,-0.148 l -0.523,-0.676 c -0.153,0.074 -0.375,0.148 -0.602,0.222 v 1.5 c 0,0 0,0.375 0.375,0.903 0.676,0.898 1.875,1.051 2.773,0.449 0.903,-0.676 1.051,-1.875 0.454,-2.773 -0.375,-0.676 -0.75,-0.75 -0.75,-0.75 m 2.398,-3.301 c -0.148,-0.528 -0.523,-0.903 -0.977,-1.125 -0.449,-0.227 -0.972,-0.301 -1.5,-0.153 -0.523,0.153 -0.824,0.454 -0.824,0.528 l -0.824,1.199 c 0.148,0.148 0.301,0.301 0.375,0.523 l 0.824,-0.222 c 0.153,-0.074 0.375,0 0.375,0.222 0.074,0.153 -0.074,0.375 -0.222,0.375 l -0.829,0.301 c 0,0.074 0,0.227 0,0.301 0,0.074 0,0.227 0,0.301 l 1.352,0.449 c 0,0 0.375,0.074 0.977,-0.074 1.046,-0.528 1.648,-1.653 1.273,-2.625 m -5.551,6.676 c -0.074,-0.079 -0.074,-0.153 -0.148,-0.153 0,0.074 -0.074,0.153 -0.153,0.153 -0.296,0.375 -0.597,0.671 -0.972,0.824 0.375,0.523 0.824,0.898 1.125,1.125 0.301,-0.227 0.75,-0.602 1.125,-1.125 -0.375,-0.153 -0.676,-0.449 -0.977,-0.824 m 4.574,-3.454 c -0.074,0 -0.148,0.079 -0.222,0.079 0.074,0.074 0.074,0.074 0.148,0.148 0.301,0.375 0.449,0.75 0.528,1.199 0.597,-0.148 1.125,-0.523 1.421,-0.676 -0.148,-0.296 -0.375,-0.898 -0.75,-1.421 -0.375,0.296 -0.75,0.523 -1.125,0.671 m -5.398,3 C 79.5,214.949 79.5,214.574 79.5,214.5 v -1.426 C 79.273,213 79.125,213 78.898,212.852 l -0.523,0.671 c -0.074,0.079 -0.148,0.153 -0.227,0.153 -0.074,0 -0.148,0 -0.222,-0.074 -0.153,-0.079 -0.153,-0.301 -0.074,-0.454 l 0.523,-0.671 C 78.227,212.324 78.074,212.176 78,211.949 l -1.352,0.449 c 0,0 -0.375,0.153 -0.75,0.602 -0.671,0.898 -0.449,2.102 0.454,2.773 0.898,0.676 2.097,0.528 2.773,-0.375 m -0.898,-4.421 c 0,0.898 0.75,1.648 1.648,1.648 0.898,0 1.648,-0.75 1.648,-1.648 0,-0.903 -0.75,-1.653 -1.648,-1.653 -0.898,0 -1.648,0.75 -1.648,1.653 m -1.875,0.75 1.347,-0.454 c 0,-0.074 0,-0.222 0,-0.296 0,-0.079 0,-0.227 0,-0.301 l -0.824,-0.227 c -0.148,-0.074 -0.227,-0.222 -0.227,-0.375 0.079,-0.148 0.227,-0.222 0.375,-0.222 l 0.829,0.222 c 0.074,-0.148 0.222,-0.375 0.375,-0.523 l -0.829,-1.199 c 0,0 -0.222,-0.301 -0.824,-0.528 -0.222,-0.074 -0.375,-0.074 -0.597,-0.074 -0.301,0 -0.602,0.074 -0.903,0.227 -0.449,0.222 -0.824,0.671 -0.972,1.125 -0.375,1.046 0.222,2.171 1.273,2.472 0.602,0.227 0.977,0.153 0.977,0.153 m 2.546,-2.625 c 0.153,-0.079 0.375,-0.153 0.602,-0.153 v -0.824 c 0,-0.148 0.148,-0.301 0.301,-0.301 0.148,0 0.301,0.153 0.301,0.301 v 0.824 c 0.222,0 0.375,0.074 0.597,0.153 l 0.824,-1.125 c 0,0 0.227,-0.301 0.227,-0.903 0,-1.125 -0.898,-1.949 -1.949,-1.949 -1.125,0 -1.949,0.898 -1.949,1.949 0,0.602 0.222,0.903 0.222,0.903 z m 3.676,-1.875 c 0.074,0 0.153,-0.079 0.227,-0.079 0.449,-0.148 0.824,-0.148 1.273,-0.074 0,-0.597 -0.148,-1.199 -0.222,-1.574 -0.301,0 -0.977,0.074 -1.579,0.301 0.227,0.375 0.301,0.824 0.301,1.273 0,0 0,0.074 0,0.153 m -8.472,4.5 c -0.375,0.449 -0.602,1.046 -0.75,1.421 0.296,0.153 0.824,0.528 1.421,0.676 0.079,-0.449 0.227,-0.824 0.528,-1.199 0.074,-0.074 0.074,-0.148 0.148,-0.148 -0.074,0 -0.148,0 -0.222,-0.079 -0.454,-0.148 -0.829,-0.375 -1.125,-0.671 m 2.773,-4.579 c 0.074,0 0.148,0.079 0.227,0.079 0,-0.079 0,-0.153 0,-0.227 0,-0.449 0.074,-0.898 0.296,-1.273 -0.597,-0.227 -1.199,-0.227 -1.574,-0.227 -0.074,0.301 -0.222,0.977 -0.222,1.574 C 76.051,207 76.5,207 76.875,207.148" /></g></g></g></svg>